<svg xmlns="http://www.w3.org/2000/svg" viewBox="0 0 512 512"><path d="M421.258 263.405c-9.26 22.042-23.261 41.702-40.739 57.874-27.639 28.381-65.218 46.91-107.132 50.123L312.979 501.9c3.902 12.844 22.404 13.647 27.498 1.201l23.861-58.377c6.294-15.404 25.909-20.957 39.821-11.282l56.973 39.68c9.843 6.859 23.093-2.198 19.677-13.444l-59.551-196.273zM136 316.543c-15.21-15.236-27.533-33.183-35.911-53.142L40.538 459.674c-3.416 11.255 9.834 20.312 19.677 13.453l56.973-39.68c13.903-9.684 33.527-4.131 39.821 11.273l23.852 58.386c5.085 12.447 23.605 11.635 27.498-1.209l39.592-130.463c-44.385-3.276-83.862-23.774-111.951-54.891" fill="#c69c18"/><path d="M428.137 211.858c0 92.637-75.096 167.724-167.724 167.724S92.689 304.494 92.689 211.858c0-92.628 75.096-167.724 167.724-167.724s167.724 75.096 167.724 167.724" fill="#f0c419"/><g fill="#f29c1f"><path d="M39.698 44.138a44.532 44.532 0 018.854 8.854 44.532 44.532 0 018.854-8.854 44.532 44.532 0 01-8.854-8.854 44.505 44.505 0 01-8.854 8.854m8.854 44.138a8.826 8.826 0 01-8.828-8.828c0-14.601-11.882-26.483-26.483-26.483-4.882 0-8.828-3.955-8.828-8.828s3.946-8.828 8.828-8.828c14.601 0 26.483-11.882 26.483-26.483C39.725 3.955 43.67 0 48.552 0s8.828 3.955 8.828 8.828c0 14.601 11.882 26.483 26.483 26.483 4.882 0 8.828 3.955 8.828 8.828s-3.946 8.828-8.828 8.828c-14.601 0-26.483 11.882-26.483 26.483a8.825 8.825 0 01-8.828 8.826m432.551 88.276a8.826 8.826 0 01-8.828-8.828v-35.31a8.826 8.826 0 018.828-8.828 8.826 8.826 0 018.828 8.828v35.31a8.826 8.826 0 01-8.828 8.828"/><path d="M498.758 158.897h-35.31a8.826 8.826 0 01-8.828-8.828 8.826 8.826 0 018.828-8.828h35.31a8.826 8.826 0 018.828 8.828 8.826 8.826 0 01-8.828 8.828m-467.862 70.62c0 4.873-3.946 8.828-8.828 8.828s-8.828-3.955-8.828-8.828 3.946-8.828 8.828-8.828 8.828 3.955 8.828 8.828M384 211.858c0 68.255-55.34 123.586-123.586 123.586s-123.586-55.331-123.586-123.586c0-68.246 55.34-123.586 123.586-123.586S384 143.612 384 211.858"/></g><g fill="#fff"><path d="M260.672 283.09c-24.338 0-44.138-19.8-44.138-44.138a8.826 8.826 0 018.828-8.828 8.826 8.826 0 018.828 8.828c0 14.601 11.882 26.483 26.483 26.483a26.445 26.445 0 0020.224-9.384c2.269-2.684 3.302-6.144 2.931-9.754a14.479 14.479 0 00-5.491-9.887l-46.168-35.911c-6.859-5.332-11.317-13.347-12.209-21.981-.883-8.439 1.598-16.605 7-22.987a44.091 44.091 0 0133.713-15.642c24.338 0 44.138 19.8 44.138 44.138 0 4.873-3.946 8.828-8.828 8.828s-8.828-3.955-8.828-8.828c0-14.601-11.882-26.483-26.483-26.483a26.456 26.456 0 00-20.233 9.393c-2.269 2.675-3.302 6.135-2.922 9.746a14.46 14.46 0 005.491 9.878l46.168 35.911c6.859 5.341 11.317 13.356 12.209 21.998.883 8.439-1.607 16.596-7.009 22.978a44.062 44.062 0 01-33.704 15.642"/><path d="M260.413 300.138h-.053c-4.873-.026-8.801-4.008-8.775-8.881l.256-45.489-.256-113.346a8.825 8.825 0 018.81-8.845h.018c4.864 0 8.819 3.937 8.828 8.81l.256 113.408-.256 45.568c-.027 4.855-3.973 8.775-8.828 8.775"/></g></svg>