<svg xmlns="http://www.w3.org/2000/svg" viewBox="0 0 295.996 295.996"><path d="M270.996 123.998a140.21 140.21 0 00-3.907-32.9c-7.269-15.152-17.35-28.708-29.558-39.996-22.391-13.376-48.766-20.666-76.772-19.645-37.566 1.369-71.131 17.422-95.386 42.433l45.716-19.798 6.359 14.682-50.671 21.944-5.418-12.51c-23.196 26.016-36.774 60.674-35.404 98.255a140.221 140.221 0 005.087 32.673 132.688 132.688 0 0023.934 32.42c21.892 14.189 47.99 22.44 76.023 22.44 77.317 0 139.997-62.68 139.997-139.998zm-86.092-69.906l50.672 21.944-6.359 14.682-50.672-21.944 6.359-14.682zm28.593 61.906c0 8.836-7.164 16-16 16s-16-7.164-16-16 7.164-16 16-16 16 7.164 16 16zm-115-16c8.836 0 16 7.164 16 16s-7.164 16-16 16-16-7.164-16-16 7.164-16 16-16zm-20.113 109.51l-14.648-6.438c13.872-31.566 45.052-53.112 79.435-54.892 34.606-1.798 67.991 16.555 85.014 46.744a92.249 92.249 0 014.075 8.148l-14.648 6.436a76.092 76.092 0 00-3.363-6.724c-14.066-24.946-41.666-40.108-70.25-38.626-28.4 1.471-54.154 19.272-65.615 45.352z" fill="#ffce00"/><path d="M267.089 91.098a140.216 140.216 0 013.907 32.9c0 77.318-62.68 139.998-139.998 139.998-28.032 0-54.131-8.251-76.023-22.44 23.88 23.744 56.766 38.44 93.023 38.44 72.784 0 131.998-59.214 131.998-131.998 0-20.362-4.638-39.661-12.907-56.9z" fill="#ffb100"/><path d="M61.359 78.208l-.941-2.172 4.956-2.146c24.255-25.011 57.819-41.063 95.386-42.433 28.006-1.021 54.381 6.268 76.772 19.645C213.985 29.328 182.521 16 147.998 16 75.214 16 16 75.214 16 147.998c0 22.049 5.442 42.849 15.042 61.138a140.221 140.221 0 01-5.087-32.673c-1.37-37.581 12.208-72.239 35.404-98.255z" fill="#ffe454"/><path d="M147.998 0C66.392 0 0 66.392 0 147.998s66.392 147.998 147.998 147.998 147.998-66.392 147.998-147.998S229.605 0 147.998 0zm0 279.996c-36.257 0-69.143-14.696-93.023-38.44a132.713 132.713 0 01-23.934-32.42C21.442 190.847 16 170.047 16 147.998 16 75.214 75.214 16 147.998 16c34.523 0 65.987 13.328 89.533 35.102 12.208 11.288 22.289 24.844 29.558 39.996 8.27 17.239 12.907 36.538 12.907 56.9 0 72.784-59.214 131.998-131.998 131.998zm-55.866-3.602c.24.105.48.212.722.316l-.722-.316z"/><circle cx="98.497" cy="115.998" r="16"/><circle cx="197.497" cy="115.998" r="16"/><path d="M229.214 90.72l-50.668-21.944 6.358-14.68 50.668 21.943zM61.359 78.208l5.418 12.51 50.672-21.944-6.359-14.682L65.374 73.89l-4.956 2.146zm152.888 124.575a75.818 75.818 0 013.363 6.724l14.648-6.436a92.112 92.112 0 00-4.075-8.148c-17.022-30.189-50.407-48.542-85.014-46.744-34.383 1.779-65.563 23.325-79.435 54.892l14.648 6.438c11.461-26.08 37.215-43.881 65.613-45.351 28.586-1.483 56.186 13.679 70.252 38.625z"/></svg>