<svg xmlns="http://www.w3.org/2000/svg" viewBox="0 0 464.137 464.137"><path d="M232.317 0v.16c-8.32 0-16.652 2.021-24.125 6.251-10.211 5.781-17.648 15.047-21.375 25.749h-34.719v15.969l-104.062.256 1.25 290.375h16v40H49.442l.374 85.377h365.781l.312-255.906h-15.906v-40h15.938l.16-119.969-103.969-.191v-15.97H204.226a31.858 31.858 0 0111.906-11.813 32.787 32.787 0 0116.125-4.188c5.576.013 11.137 1.44 16.094 4.313 2.42 1.392 4.587 3.098 6.5 4.998l15.625-6.188c-3.768-5.033-8.445-9.427-14.094-12.687A48.578 48.578 0 00232.319.035L232.317 0z" fill="#5a3392"/><path d="M152.082 64.094v16.063h160.031V64.219h88.031l-.484 383.969H65.754L64.127 64.313l87.955-.219z" fill="#ee746c"/><path d="M157.683 77.529v14.939h148.836V77.646h81.872l-.423 357.105H77.42l-1.512-357.02 81.775-.202z" fill="#fb9761"/><path d="M88.073 208.18v207.992h288.071V208.18H88.073z" fill="#5a3392"/><g fill="#fff"><path d="M104.135 224.127H360.08v175.984H104.135V224.127zm127.914-111.969c-17.578 0-32.007 14.43-32.008 32.006 0 17.58 14.43 32.008 32.008 32.008 17.579 0 32.008-14.43 32.008-32.008 0-17.578-14.43-32.008-32.008-32.006zm0 15.944a15.987 15.987 0 0116.063 16.063c.001 8.934-7.132 15.945-16.063 15.945s-15.945-7.014-15.945-15.945 7.014-16.063 15.945-16.063zm47.244-15.944a8.002 8.002 0 00-7.205 8.031v31.063a8.033 8.033 0 000 1.535v15.236a8.002 8.002 0 1015.945-.001v-3.072l20.315 10.156a8.001 8.001 0 0010.723-3.619 8.002 8.002 0 00-3.518-10.672l-17.599-8.857 17.599-8.74a8.001 8.001 0 004.372-7.086v-15.943a8.002 8.002 0 00-7.913-8.031h-31.89a8.816 8.816 0 00-.829 0zm8.74 15.944h15.945v3.072l-15.945 7.914v-10.986zM186.931 114.52c-13.019-5.613-28.235-1.137-36.614 10.395-8.384 11.527-8.245 27.287.242 38.74 8.484 11.451 23.649 15.658 36.614 9.92a8 8 0 10-6.377-14.645c-6.194 2.738-13.213.912-17.48-4.846-4.263-5.764-4.221-14.039 0-19.844 4.215-5.805 11.147-7.639 17.362-4.959a8.019 8.019 0 006.26-14.763l-.007.002zm148.346-2.362a8.002 8.002 0 00-7.205 8.031v47.953a8.001 8.001 0 007.97 8.031h31.951a8.031 8.031 0 000-16.062h-23.859v-32.008h23.859a8 8 0 100-15.943h-31.89a8.167 8.167 0 00-.828 0l.002-.002z"/><path d="M339.293 136.135a8.043 8.043 0 10.828 16.062h11.811a8.031 8.031 0 000-16.062h-11.811a8.167 8.167 0 00-.828 0zM95.395 112.158a8.002 8.002 0 00-5.903 12.403l23.504 35.551h-16.77a8.031 8.031 0 10-.078 16.062h31.85a8 8 0 006.614-12.402l-23.622-35.668h17.008a8 8 0 100-15.943H96.226a8.167 8.167 0 00-.828 0l-.003-.003z"/></g><path d="M168.02 48.156h128.032v15.938H168.02V48.156z" fill="#3cdef6"/><path d="M113.391 230.49h237.435v163.256H113.391V230.49z" fill="#ebfeff"/><g fill="#5a3392"><path d="M92.089 336.094v16.064h280.039v-16.064H92.089zm0-63.897v15.943h280.039v-15.943H92.089z"/><path d="M136.144 212.197v199.961h15.945V212.197h-15.945zm175.984 0v199.961h15.945V212.197h-15.945zm-48.071 0v199.961h16.063V212.197h-16.063z"/></g><path d="M49.272 350.725h16v16h-16v-16zm366.747-170.543h-16v16h16v-16z" fill="#5a3392"/></svg>