<svg xmlns="http://www.w3.org/2000/svg" viewBox="0 0 366.285 366.285"><path d="M70.717 286.199l-31.01 31.01c-8.797 8.797-8.797 23.193 0 31.99 8.797 8.797 23.193 8.797 31.99 0l33.232-33.232a147.768 147.768 0 01-34.212-29.768z" fill="#00969b"/><path d="M55.702 365.797c-8.731 0-16.922-3.383-23.066-9.526-12.719-12.719-12.719-33.414 0-46.133l38.706-38.706 7.019 8.319a137.534 137.534 0 0031.896 27.753l10.604 6.674-42.092 42.093c-6.144 6.143-14.336 9.526-23.067 9.526zm14.654-65.094l-23.577 23.578c-4.921 4.92-4.921 12.927 0 17.848 2.366 2.366 5.535 3.669 8.923 3.669s6.558-1.303 8.924-3.669l24.728-24.728a157.416 157.416 0 01-18.998-16.698z" fill="#1f2c47"/><path d="M326.578 317.209l-31.01-31.01a147.771 147.771 0 01-34.212 29.768l33.232 33.232c8.797 8.797 23.193 8.797 31.99 0 8.797-8.797 8.797-23.193 0-31.99z" fill="#00969b"/><path d="M310.583 365.797c-8.731 0-16.922-3.383-23.066-9.526l-42.092-42.092 10.604-6.674a137.581 137.581 0 0031.896-27.753l7.019-8.319 38.706 38.706c12.719 12.719 12.719 33.414 0 46.133-6.145 6.142-14.336 9.525-23.067 9.525zm-33.651-48.396l24.728 24.727c2.366 2.366 5.535 3.669 8.924 3.669s6.558-1.303 8.923-3.669c4.921-4.92 4.921-12.927 0-17.848l-23.577-23.578a157.49 157.49 0 01-18.998 16.699z" fill="#1f2c47"/><path d="M133.143 52.971c-8.624-24.73-32.135-42.481-59.805-42.481C38.357 10.49 10 38.847 10 73.827c0 25.882 15.532 48.123 37.776 57.95 14.209-38.074 45.927-67.612 85.367-78.806z" fill="#00969b"/><path d="M53.437 145.208l-9.702-4.286C17.167 129.187 0 102.85 0 73.827 0 33.389 32.899.49 73.337.49c31.159 0 58.988 19.767 69.248 49.188l3.493 10.017-10.205 2.896c-36.141 10.257-65.571 37.428-78.728 72.682l-3.708 9.935zm19.9-124.718C43.927 20.49 20 44.417 20 73.827c0 17.654 8.737 33.943 22.904 43.796 15.351-32.495 42.939-57.965 76.52-70.646C110 30.811 92.538 20.49 73.337 20.49z" fill="#1f2c47"/><path d="M292.948 10.49c-27.671 0-51.182 17.751-59.805 42.481 39.439 11.194 71.158 40.732 85.366 78.805 22.244-9.827 37.776-32.068 37.776-57.95 0-34.979-28.357-63.336-63.337-63.336z" fill="#00969b"/><path d="M312.848 145.208l-3.708-9.937c-13.157-35.253-42.587-62.424-78.728-72.682l-10.205-2.896 3.493-10.017C233.96 20.255 261.789.488 292.948.488c40.438 0 73.337 32.899 73.337 73.337 0 29.022-17.167 55.359-43.735 67.097l-9.702 4.286zm-65.987-98.23c33.581 12.68 61.169 38.15 76.52 70.646 14.167-9.854 22.904-26.143 22.904-43.796 0-29.41-23.927-53.337-53.337-53.337-19.201-.001-36.663 10.32-46.087 26.487z" fill="#1f2c47"/><path d="M183.143 348.485c-86.588 0-157.032-70.444-157.032-157.032S96.555 34.42 183.143 34.42s157.032 70.444 157.032 157.032-70.445 157.033-157.032 157.033zm0-294.065c-75.56 0-137.032 61.473-137.032 137.032s61.473 137.032 137.032 137.032 137.032-61.473 137.032-137.032S258.702 54.42 183.143 54.42z" fill="#1f2c47"/><path d="M183.143 314.554c-67.878 0-123.102-55.223-123.102-123.102S115.264 68.351 183.143 68.351v20c-56.851 0-103.102 46.251-103.102 103.102s46.251 103.102 103.102 103.102 103.102-46.251 103.102-103.102h20c-.001 67.878-55.224 123.101-123.102 123.101z" fill="#1f2c47"/><path fill="#1f2c47" d="M185.117 214.93l-51.687-25.843 8.944-17.889 38.794 19.396 51.454-51.453 14.143 14.142z"/></svg>